<svg viewBox="0 0 32 32" enable-background="new 0 0 32 32" version="1.1" xml:space="preserve" xmlns="http://www.w3.org/2000/svg" xmlns:xlink="http://www.w3.org/1999/xlink" fill="#000000"><g id="SVGRepo_bgCarrier" stroke-width="0"></g><g id="SVGRepo_tracerCarrier" stroke-linecap="round" stroke-linejoin="round"></g><g id="SVGRepo_iconCarrier"> <g id="Files_Folder40"></g> <g id="Files_Folder39"></g> <g id="Files_Folder38"></g> <g id="Files_Folder37"></g> <g id="Files_Folder36"></g> <g id="Files_Folder35"></g> <g id="Files_Folder34"></g> <g id="Files_Folder33"></g> <g id="Files_Folder32"></g> <g id="Files_Folder31"></g> <g id="Files_Folder30"></g> <g id="Files_Folder29"> <g> <path d="M17.02,10c0,0.55-0.45,1-1,1c0,0-0.01,0-0.02,0H2c-0.55,0-1-0.45-1-1V5c0-0.55,0.45-1,1-1h11 c0.35,0,0.68,0.18,0.86,0.49l2.91,4.85C16.92,9.51,17.02,9.75,17.02,10z" fill="#d4d4d8"></path> </g> <g> <path d="M31,10v17c0,0.55-0.45,1-1,1H2c-0.55,0-1-0.45-1-1V9h29C30.55,9,31,9.45,31,10z" fill="#f4f4f5"></path> </g> </g> <g id="Files_Folder28"></g> <g id="Files_Folder27"></g> <g id="Files_Folder26"></g> <g id="Files_Folder25"></g> <g id="Files_Folder24"></g> <g id="Files_Folder23"></g> <g id="Files_Folder22"></g> <g id="Files_Folder21"></g> <g id="Files_Folder20"></g> <g id="Files_Folder19"></g> <g id="Files_Folder18"></g> <g id="Files_Folder17"></g> <g id="Files_Folder16"></g> <g id="Files_Folder15"></g> <g id="Files_Folder14"></g> <g id="Files_Folder13"></g> <g id="Files_Folder12"></g> <g id="Files_Folder11"></g> <g id="Files_Folder10"></g> <g id="Files_Folder09"></g> <g id="Files_Folder08"></g> <g id="Files_Folder07"></g> <g id="Files_Folder06"></g> <g id="Files_Folder05"></g> <g id="Files_Folder04"></g> <g id="Files_Folder03"></g> <g id="Files_Folder02"></g> <g id="Files_Folder01"></g> </g></svg>