<svg viewBox="0 0 24 24" fill="none" xmlns="http://www.w3.org/2000/svg"><g id="SVGRepo_bgCarrier" stroke-width="0"></g><g id="SVGRepo_tracerCarrier" stroke-linecap="round" stroke-linejoin="round"></g><g id="SVGRepo_iconCarrier"> <rect x="3" y="6" width="18" height="15" rx="2" stroke="#0069a8" stroke-width="2"></rect> <path d="M3 10C3 8.11438 3 7.17157 3.58579 6.58579C4.17157 6 5.11438 6 7 6H17C18.8856 6 19.8284 6 20.4142 6.58579C21 7.17157 21 8.11438 21 10H3Z" fill="#0069a8"></path> <path d="M7 3L7 6" stroke="#0069a8" stroke-width="2" stroke-linecap="round"></path> <path d="M17 3L17 6" stroke="#0069a8" stroke-width="2" stroke-linecap="round"></path> <rect x="7" y="12" width="4" height="2" rx="0.5" fill="#0069a8"></rect> <rect x="7" y="16" width="4" height="2" rx="0.5" fill="#0069a8"></rect> <rect x="13" y="12" width="4" height="2" rx="0.5" fill="#0069a8"></rect> <rect x="13" y="16" width="4" height="2" rx="0.5" fill="#0069a8"></rect> </g></svg>