<svg aria-hidden="true" fill="#0069a8" data-glyph="board" viewBox="0 0 24 24" height="24" width="24" xmlns="http://www.w3.org/2000/svg"><path xmlns="http://www.w3.org/2000/svg" d="M19.33 22H4.65999C2.65999 22 1.98999 21.33 1.98999 19.33V4.65999C1.98999 2.65999 2.65999 1.98999 4.65999 1.98999H19.33C21.33 1.98999 22 2.65999 22 4.65999V19.33C22 21.33 21.33 22 19.33 22ZM3.99999 20H7.99999V16H3.99999V20ZM12 20H16V16H12V20ZM7.99999 16H12V12H7.99999V16ZM3.99999 12H7.99999V7.99999H3.99999V12ZM16 16H20V12H16V16ZM12 12H16V7.99999H12V12ZM7.99999 7.99999H12V3.99999H7.99999V7.99999ZM16 7.99999H20V3.99999H16V7.99999Z"></path></svg>